<?xml version="1.0" encoding="utf-8" ?>
<svg xmlns="http://www.w3.org/2000/svg" xmlns:xlink="http://www.w3.org/1999/xlink" width="512" height="512">
	<path fill="#111F08" transform="scale(0.5 0.5)" d="M-0 658.5L0 -0L1024 0L1024 712.5L1024 1024L-0 1024L0 658.5ZM0 658.5L67.5 658.5C69.142 657.405 74.3273 658 76.5 658C78.42 656.72 112.211 657.5 117.5 657.5L117.5 651.75C117.253 650.732 117.099 650.169 117.056 649.098L117.896 649.073L104.04 453.793L100.936 410.804C100.325 402.813 98.9338 393.972 99.5514 386.015C100.064 383.876 101.571 381.864 103.02 380.25C112.908 369.235 124.785 366.766 138.958 366.027L167.659 365.991C169.638 365.997 173.997 366.589 175.75 366.015C176.186 365.873 176.443 365.415 176.789 365.115L177.504 366.376L194.605 366.423L797.898 366.03L819.625 365.658C830.23 364.65 841.163 366.781 851.762 365.683L852.466 365.636L855.25 365.392C855.801 364.304 856.433 363.82 857.384 363.114C858.053 362.617 858.026 361.712 858.219 360.918L858.358 360.823L858.774 365.988L877.011 365.997C880.203 365.997 883.753 366.321 886.904 365.862C900.005 366.338 910.93 368.429 920.25 378.422C922.069 380.372 924.747 383.193 925.058 385.896C926.086 389.744 924.617 396.173 924.376 400.402L918.493 483.75L908.447 627.783L902.267 715.919C902.355 716.802 902.21 718.005 902.893 718.582C902.907 716.596 902.978 714.965 903.559 713.059C905.414 711.994 909.111 712.511 911.299 712.511L930.65 712.509L1024 712.5L1024 0L0 -0L-0 658.5ZM0 658.5L0 1024L1024 1024L1024 712.5L930.65 712.509L911.299 712.511C909.111 712.511 905.414 711.994 903.559 713.059C902.978 714.965 902.907 716.596 902.893 718.582C902.21 718.005 902.355 716.802 902.267 715.919L901.033 733.315L898.731 761.75C897.964 774.738 898.555 788.787 895.314 801.432C892.836 811.101 886.661 819.016 877.993 824.013C870.459 828.356 863.111 828.61 854.68 828.809L804.339 828.585L684.946 828.477L341.028 828.402L208.335 828.406L179.731 828.426C172.707 828.495 163.896 829.757 157.121 827.771C151.15 826.02 145.589 823.52 140.819 819.453C135.319 814.763 131.303 808.263 129.581 801.25C127.807 794.019 127.856 786.25 127.283 778.862L124.094 725.934L117.896 649.073L117.056 649.098C117.099 650.169 117.253 650.732 117.5 651.75L117.5 657.5C112.211 657.5 78.42 656.72 76.5 658C74.3273 658 69.142 657.405 67.5 658.5L-0 658.5Z"/>
	<path fill="#5F7980" transform="scale(0.5 0.5)" d="M858.219 360.918L858.358 360.823L858.774 365.988L877.011 365.997C880.203 365.997 883.753 366.321 886.904 365.862C900.005 366.338 910.93 368.429 920.25 378.422C922.069 380.372 924.747 383.193 925.058 385.896C920.598 386.302 915.343 385.525 910.776 385.512L870.739 385.564L723.188 385.764L286.646 385.851L153.578 385.531L122.233 385.508C114.81 385.45 106.891 384.729 99.5514 386.015C100.064 383.876 101.571 381.864 103.02 380.25C112.908 369.235 124.785 366.766 138.958 366.027L167.659 365.991C169.638 365.997 173.997 366.589 175.75 366.015C176.186 365.873 176.443 365.415 176.789 365.115L177.504 366.376L194.605 366.423L797.898 366.03L819.625 365.658C830.23 364.65 841.163 366.781 851.762 365.683L852.466 365.636L855.25 365.392C855.801 364.304 856.433 363.82 857.384 363.114C858.053 362.617 858.026 361.712 858.219 360.918Z"/>
	<path fill="#111F08" transform="scale(0.5 0.5)" d="M807.591 243.483L808.205 243.713C810.639 244.545 815.345 243.886 818 243.833L843.189 243.352C849.514 243.246 856.906 242.516 863 244.384L863.944 244.669C873.837 247.703 882.327 255.665 886.92 264.803C888.917 268.776 889.725 272.961 890.78 277.226C891.758 281.177 891.583 285.447 891.565 289.5C891.522 299.032 890.46 308.562 889.908 318.079L886.904 365.862C883.753 366.321 880.203 365.997 877.011 365.997L858.774 365.988L858.358 360.823L858.219 360.918C858.026 361.712 858.053 362.617 857.384 363.114C856.433 363.82 855.801 364.304 855.25 365.392L852.466 365.636L851.762 365.683C841.163 366.781 830.23 364.65 819.625 365.658L812.289 293.961L811.557 286.98L808.759 258.561C808.283 253.602 807.385 248.461 807.591 243.483ZM820.267 287.05L818.189 287.095L811.557 286.98L812.289 293.961L819.625 365.658C830.23 364.65 841.163 366.781 851.762 365.683L852.466 365.636L855.25 365.392C855.801 364.304 856.433 363.82 857.384 363.114C858.053 362.617 858.026 361.712 858.219 360.918L858.1 359.262L857.909 347.508C857.88 346.091 858.071 344.463 857.367 343.212C856.212 341.158 856.326 337.179 856.053 334.744L856.236 307.823C856.008 300.891 855.044 293.816 855.924 286.899C856.367 286.521 856.62 286.063 856.94 285.582C856.615 285.363 856.341 285.036 855.965 284.924C853.942 284.324 823.811 286.284 820.583 286.967L820.267 287.05ZM856.94 285.582C856.62 286.063 856.367 286.521 855.924 286.899C855.044 293.816 856.008 300.891 856.236 307.823L856.053 334.744C856.326 337.179 856.212 341.158 857.367 343.212C858.071 344.463 857.88 346.091 857.909 347.508L858.1 359.262L858.219 360.918L858.358 360.823L858.003 320.391L857.969 300.516C857.938 295.653 857.957 290.35 856.94 285.582Z"/>
	<path fill="#FFFCFD" transform="scale(0.5 0.5)" d="M856.94 285.582C857.957 290.35 857.938 295.653 857.969 300.516L858.003 320.391L858.358 360.823L858.219 360.918L858.1 359.262L857.909 347.508C857.88 346.091 858.071 344.463 857.367 343.212C856.212 341.158 856.326 337.179 856.053 334.744L856.236 307.823C856.008 300.891 855.044 293.816 855.924 286.899C856.367 286.521 856.62 286.063 856.94 285.582Z"/>
	<path fill="#FDFAFB" transform="scale(0.5 0.5)" d="M820.267 287.05L820.583 286.967C823.811 286.284 853.942 284.324 855.965 284.924C856.341 285.036 856.615 285.363 856.94 285.582C856.62 286.063 856.367 286.521 855.924 286.899C855.044 293.816 856.008 300.891 856.236 307.823L856.053 334.744C856.326 337.179 856.212 341.158 857.367 343.212C858.071 344.463 857.88 346.091 857.909 347.508L858.1 359.262L858.219 360.918C858.026 361.712 858.053 362.617 857.384 363.114C856.433 363.82 855.801 364.304 855.25 365.392L852.466 365.636L851.762 365.683C841.163 366.781 830.23 364.65 819.625 365.658L812.289 293.961L811.557 286.98L818.189 287.095L820.267 287.05ZM851.691 308.978C852.704 312.358 852.267 316.408 852.244 319.921C852.189 328.243 851.509 336.976 852.25 345.245L852.759 345.108C853.622 344.901 854.475 344.832 855.356 344.75C856.602 342.693 855.606 337.334 856.053 334.744L856.236 307.823C856.008 300.891 855.044 293.816 855.924 286.899L855.497 285.502C853.96 285.084 852.328 285.267 850.75 285.314L850.255 286C851.605 289.329 851.387 292.565 851.502 296.111L851.691 308.978ZM811.557 286.98L812.289 293.961L814.326 294.402C816.954 295.475 817.458 301.282 818.204 303.75C819.369 301.808 818.361 299.229 819.414 297.723C821.837 297.641 824.112 297.442 826.501 297.001L827.375 297.625C827.497 298.968 827.554 298.928 826.75 300L827.25 300.745L827.125 301.125L828.125 301.998C829.651 300.298 829.245 299.479 829.245 297.25L825.997 294.03L825.125 293.823L825.245 293C824.464 292.519 823.7 292.434 822.805 292.233C824.733 292.125 826.455 292.155 828.195 291.25C828.831 289.739 828.554 288.777 828.221 287.25L820.267 287.05L818.189 287.095L811.557 286.98ZM851.691 308.978L851.597 340.498C851.602 346.133 852.544 354.052 850.88 359.381C853.499 358.934 855.442 358.805 858.1 359.262L857.909 347.508C857.88 346.091 858.071 344.463 857.367 343.212C856.212 341.158 856.326 337.179 856.053 334.744C855.606 337.334 856.602 342.693 855.356 344.75C854.475 344.832 853.622 344.901 852.759 345.108L852.25 345.245C851.509 336.976 852.189 328.243 852.244 319.921C852.267 316.408 852.704 312.358 851.691 308.978ZM847.677 363.436L844.25 362.786C845 362.208 845.769 361.943 846.64 361.571C846.535 360.604 846.505 361.134 846.867 359.996C840.059 360.191 831.084 358.685 824.683 360.75L823.412 362.75C825.966 364.44 843.419 363.322 847.677 363.436ZM850.88 359.381L846.867 359.996C846.505 361.134 846.535 360.604 846.64 361.571C845.769 361.943 845 362.208 844.25 362.786L847.677 363.436C849.682 363.586 850.668 363.525 852.049 365.122L852.466 365.636L855.25 365.392C855.801 364.304 856.433 363.82 857.384 363.114C858.053 362.617 858.026 361.712 858.219 360.918L858.1 359.262C855.442 358.805 853.499 358.934 850.88 359.381Z"/>
	<path fill="#FFFCFD" transform="scale(0.5 0.5)" d="M847.677 363.436C843.419 363.322 825.966 364.44 823.412 362.75L824.683 360.75C831.084 358.685 840.059 360.191 846.867 359.996C846.505 361.134 846.535 360.604 846.64 361.571C845.769 361.943 845 362.208 844.25 362.786L847.677 363.436Z"/>
	<path fill="#FFFCFD" transform="scale(0.5 0.5)" d="M851.691 308.978C852.704 312.358 852.267 316.408 852.244 319.921C852.189 328.243 851.509 336.976 852.25 345.245L852.759 345.108C853.622 344.901 854.475 344.832 855.356 344.75C856.602 342.693 855.606 337.334 856.053 334.744C856.326 337.179 856.212 341.158 857.367 343.212C858.071 344.463 857.88 346.091 857.909 347.508L858.1 359.262C855.442 358.805 853.499 358.934 850.88 359.381C852.544 354.052 851.602 346.133 851.597 340.498L851.691 308.978Z"/>
	<defs>
		<linearGradient id="gradient_0" gradientUnits="userSpaceOnUse" x1="818.2829" y1="296.72446" x2="818.72491" y2="293.21359">
			<stop offset="0" stop-color="#FFFCFD"/>
			<stop offset="1" stop-color="#FFFCFD"/>
		</linearGradient>
	</defs>
	<path fill="url(#gradient_0)" transform="scale(0.5 0.5)" d="M811.557 286.98L818.189 287.095L820.267 287.05L828.221 287.25C828.554 288.777 828.831 289.739 828.195 291.25C826.455 292.155 824.733 292.125 822.805 292.233C823.7 292.434 824.464 292.519 825.245 293L825.125 293.823L825.997 294.03L829.245 297.25C829.245 299.479 829.651 300.298 828.125 301.998L827.125 301.125L827.25 300.745L826.75 300C827.554 298.928 827.497 298.968 827.375 297.625L826.501 297.001C824.112 297.442 821.837 297.641 819.414 297.723C818.361 299.229 819.369 301.808 818.204 303.75C817.458 301.282 816.954 295.475 814.326 294.402L812.289 293.961L811.557 286.98ZM820.267 287.05L818.189 287.095L814 287.583C813.46 288.88 813.57 289.873 813.585 291.25C814.287 292.313 814.262 292.318 815.543 292.587C817.956 293.094 820.399 292.593 822.805 292.233C824.733 292.125 826.455 292.155 828.195 291.25C828.831 289.739 828.554 288.777 828.221 287.25L820.267 287.05Z"/>
	<defs>
		<linearGradient id="gradient_1" gradientUnits="userSpaceOnUse" x1="847.81018" y1="323.41028" x2="859.64417" y2="320.34229">
			<stop offset="0" stop-color="#FFFCFD"/>
			<stop offset="1" stop-color="#FFFCFD"/>
		</linearGradient>
	</defs>
	<path fill="url(#gradient_1)" transform="scale(0.5 0.5)" d="M851.691 308.978L851.502 296.111C851.387 292.565 851.605 289.329 850.255 286L850.75 285.314C852.328 285.267 853.96 285.084 855.497 285.502L855.924 286.899C855.044 293.816 856.008 300.891 856.236 307.823L856.053 334.744C855.606 337.334 856.602 342.693 855.356 344.75C854.475 344.832 853.622 344.901 852.759 345.108L852.25 345.245C851.509 336.976 852.189 328.243 852.244 319.921C852.267 316.408 852.704 312.358 851.691 308.978Z"/>
	<path fill="#111F08" transform="scale(0.5 0.5)" d="M138.958 366.027C138.956 354.544 137.058 342.73 135.999 331.29L131.987 281.382C131.086 270.78 128.692 258.838 130.736 248.329C132.121 241.213 136.959 234.645 143.046 230.76C147.488 227.925 152.155 226.56 157.323 225.747C163.663 224.75 170.185 224.45 176.574 223.766L212.072 219.722L256.227 214.184L343.219 204.828L488.874 188.182L534.706 182.668C538.913 182.286 543.833 181.905 547.969 182.957C564.93 187.275 574.714 203.755 583.092 217.674L167.383 268.102L176.789 365.115C176.443 365.415 176.186 365.873 175.75 366.015C173.997 366.589 169.638 365.997 167.659 365.991L138.958 366.027Z"/>
	<path fill="#356A25" transform="scale(0.5 0.5)" d="M583.092 217.674L609.605 215.336C611.301 217.128 613.107 219.345 615.141 220.736C617.71 222.493 620.842 223.752 623.589 225.25C628.161 227.743 634.592 233.423 639.836 233.402L804.066 217.47C806.297 225.962 806.069 234.843 807.591 243.483C807.385 248.461 808.283 253.602 808.759 258.561L811.557 286.98L812.289 293.961L819.625 365.658L797.898 366.03L194.605 366.423L177.504 366.376L176.789 365.115L167.383 268.102L583.092 217.674Z"/>
	<path fill="#718969" transform="scale(0.5 0.5)" d="M194.605 366.423L192.326 333.526L788.924 264.977L797.898 366.03L194.605 366.423Z"/>
</svg>
